<svg xmlns="http://www.w3.org/2000/svg" viewBox="0 0 81.47 81.47"><defs><style>.cls-1{fill:#31bc06;stroke:#069d45;stroke-miterlimit:10;}.cls-2{fill:none;stroke:#fff;stroke-linecap:round;stroke-linejoin:round;stroke-width:2px;}</style></defs><title>Mindful Icon</title><g id="Layer_2" data-name="Layer 2"><circle class="cls-1" cx="40.74" cy="40.74" r="40.24"/></g><g id="Layer_1" data-name="Layer 1"><path class="cls-2" d="M50.55,16.82a23.32,23.32,0,0,0-4.34-.74c-8.67-.69-16.71,2.44-20,9.15-1.51,3-1.43,7.37-1.06,10.67a1.14,1.14,0,0,1-.22.8c-2.38,3.19-5,7.59-4.32,8.73s3,1.22,5,1.41c-.09,4.09.23,8.5,2.18,9.71s5.2,1,8.89.37a12.88,12.88,0,0,1-.3,7.37,3.11,3.11,0,0,0,3.48,4l14.59-2.42a3.12,3.12,0,0,0,2.47-4c-.77-2.56-1.7-5.32-1.51-7.21a28.41,28.41,0,0,1,3-9.93,30.61,30.61,0,0,0,2.5-6.62" transform="translate(-2.5 -1.56)"/><path class="cls-2" d="M53.43,39.92a11.75,11.75,0,1,1-6.1-18.11" transform="translate(-2.5 -1.56)"/><path class="cls-2" d="M46.5,44.5V34.84s3.37-16,18.71-17.16c0,0,2.65,14.73-14.32,18.08" transform="translate(-2.5 -1.56)"/><path class="cls-2" d="M58.71,25.28s-7.26.82-12.21,9.56c0,0,.27-6.57-8-5.66,0,0-.69,8.5,8,7.81" transform="translate(-2.5 -1.56)"/></g></svg>